<svg xmlns="http://www.w3.org/2000/svg" xmlns:xlink="http://www.w3.org/1999/xlink" contentStyleType="text/css" data-diagram-type="SEQUENCE" height="841px" preserveAspectRatio="none" style="width:1147px;height:841px;background:#FFFFFF;" version="1.1" viewBox="0 0 1147 841" width="1147px" zoomAndPan="magnify"><defs/><g><g><title>DGS Administrator</title><rect fill="#FFFFFF" height="651.6563" style="stroke:#181818;stroke-width:1;" width="10" x="68.3242" y="91.2969"/></g><g><title>.ListEmployeeByRoleView</title><rect fill="#FFFFFF" height="152.7969" style="stroke:#181818;stroke-width:1;" width="10" x="399.5098" y="112.4297"/></g><g><title>.ListEmployeeByRoleView</title><rect fill="#FFFFFF" height="71.2656" style="stroke:#181818;stroke-width:1;" width="10" x="399.5098" y="294.3594"/></g><g><title>.ListEmployeeByRoleView</title><rect fill="#FFFFFF" height="348.1953" style="stroke:#181818;stroke-width:1;" width="10" x="399.5098" y="394.7578"/></g><g><title>.ListEmployeeByRoleController</title><rect fill="#FFFFFF" height="94.5313" style="stroke:#181818;stroke-width:1;" width="10" x="622.0732" y="141.5625"/></g><g><title>.ListEmployeeByRoleController</title><rect fill="#FFFFFF" height="289.9297" style="stroke:#181818;stroke-width:1;" width="10" x="622.0732" y="423.8906"/></g><g><title>.Company</title><rect fill="#FFFFFF" height="29.1328" style="stroke:#181818;stroke-width:1;" width="10" x="803.6846" y="453.0234"/></g><g><title>store.EmployeeStore</title><rect fill="#FFFFFF" height="173.3984" style="stroke:#181818;stroke-width:1;" width="10" x="936.8853" y="511.2891"/></g><g><title>store.EmployeeStore</title><rect fill="#FFFFFF" height="28" style="stroke:#181818;stroke-width:1;" width="10" x="941.8853" y="548.4219"/></g><g><title>store.EmployeeStore</title><rect fill="#FFFFFF" height="28" style="stroke:#181818;stroke-width:1;" width="10" x="941.8853" y="620.5547"/></g><g><title>DGS Administrator</title><rect fill="#000000" fill-opacity="0.00000" height="679.6563" width="8" x="69.3242" y="81.2969"/><line style="stroke:#181818;stroke-width:0.5;stroke-dasharray:5,5;" x1="73" x2="73" y1="81.2969" y2="760.9531"/></g><g><title>.ListEmployeeByRoleView</title><rect fill="#000000" fill-opacity="0.00000" height="679.6563" width="8" x="400.5098" y="81.2969"/><line style="stroke:#181818;stroke-width:0.5;stroke-dasharray:5,5;" x1="404.1387" x2="404.1387" y1="81.2969" y2="760.9531"/></g><g><title>.ListEmployeeByRoleController</title><rect fill="#000000" fill-opacity="0.00000" height="679.6563" width="8" x="623.0732" y="81.2969"/><line style="stroke:#181818;stroke-width:0.5;stroke-dasharray:5,5;" x1="626.8809" x2="626.8809" y1="81.2969" y2="760.9531"/></g><g><title>.Company</title><rect fill="#000000" fill-opacity="0.00000" height="679.6563" width="8" x="804.6846" y="81.2969"/><line style="stroke:#181818;stroke-width:0.5;stroke-dasharray:5,5;" x1="808.0249" x2="808.0249" y1="81.2969" y2="760.9531"/></g><g><title>store.EmployeeStore</title><rect fill="#000000" fill-opacity="0.00000" height="679.6563" width="8" x="937.8853" y="81.2969"/><line style="stroke:#181818;stroke-width:0.5;stroke-dasharray:5,5;" x1="941.3442" x2="941.3442" y1="81.2969" y2="760.9531"/></g><g class="participant participant-head" data-participant="Admin"><text fill="#000000" font-family="sans-serif" font-size="14" lengthAdjust="spacing" textLength="130.6484" x="5" y="77.9951">DGS Administrator</text><ellipse cx="73.3242" cy="13.5" fill="#E3E3E3" rx="8" ry="8" style="stroke:#181818;stroke-width:0.5;"/><path d="M73.3242,21.5 L73.3242,48.5 M60.3242,29.5 L86.3242,29.5 M73.3242,48.5 L60.3242,63.5 M73.3242,48.5 L86.3242,63.5" fill="none" style="stroke:#181818;stroke-width:0.5;"/></g><g class="participant participant-tail" data-participant="Admin"><text fill="#000000" font-family="sans-serif" font-size="14" lengthAdjust="spacing" textLength="130.6484" x="5" y="772.9482">DGS Administrator</text><ellipse cx="73.3242" cy="784.75" fill="#E3E3E3" rx="8" ry="8" style="stroke:#181818;stroke-width:0.5;"/><path d="M73.3242,792.75 L73.3242,819.75 M60.3242,800.75 L86.3242,800.75 M73.3242,819.75 L60.3242,834.75 M73.3242,819.75 L86.3242,834.75" fill="none" style="stroke:#181818;stroke-width:0.5;"/></g><g class="participant participant-head" data-participant="View"><rect fill="#E3E3E3" height="30.2969" rx="2.5" ry="2.5" style="stroke:#181818;stroke-width:0.5;" width="194.7422" x="307.1387" y="50"/><text fill="#000000" font-family="sans-serif" font-size="14" lengthAdjust="spacing" textLength="180.7422" x="314.1387" y="69.9951">:ListEmployeeByRoleView</text></g><g class="participant participant-tail" data-participant="View"><rect fill="#E3E3E3" height="30.2969" rx="2.5" ry="2.5" style="stroke:#181818;stroke-width:0.5;" width="194.7422" x="307.1387" y="759.9531"/><text fill="#000000" font-family="sans-serif" font-size="14" lengthAdjust="spacing" textLength="180.7422" x="314.1387" y="779.9482">:ListEmployeeByRoleView</text></g><g class="participant participant-head" data-participant="Controller"><rect fill="#E3E3E3" height="30.2969" rx="2.5" ry="2.5" style="stroke:#181818;stroke-width:0.5;" width="230.3848" x="511.8809" y="50"/><text fill="#000000" font-family="sans-serif" font-size="14" lengthAdjust="spacing" textLength="216.3848" x="518.8809" y="69.9951">:ListEmployeeByRoleController</text></g><g class="participant participant-tail" data-participant="Controller"><rect fill="#E3E3E3" height="30.2969" rx="2.5" ry="2.5" style="stroke:#181818;stroke-width:0.5;" width="230.3848" x="511.8809" y="759.9531"/><text fill="#000000" font-family="sans-serif" font-size="14" lengthAdjust="spacing" textLength="216.3848" x="518.8809" y="779.9482">:ListEmployeeByRoleController</text></g><g class="participant participant-head" data-participant="Company"><rect fill="#E3E3E3" height="30.2969" rx="2.5" ry="2.5" style="stroke:#181818;stroke-width:0.5;" width="85.3193" x="766.0249" y="50"/><text fill="#000000" font-family="sans-serif" font-size="14" lengthAdjust="spacing" textLength="71.3193" x="773.0249" y="69.9951">:Company</text></g><g class="participant participant-tail" data-participant="Company"><rect fill="#E3E3E3" height="30.2969" rx="2.5" ry="2.5" style="stroke:#181818;stroke-width:0.5;" width="85.3193" x="766.0249" y="759.9531"/><text fill="#000000" font-family="sans-serif" font-size="14" lengthAdjust="spacing" textLength="71.3193" x="773.0249" y="779.9482">:Company</text></g><g class="participant participant-head" data-participant="Store"><rect fill="#E3E3E3" height="30.2969" rx="2.5" ry="2.5" style="stroke:#181818;stroke-width:0.5;" width="161.082" x="861.3442" y="50"/><text fill="#000000" font-family="sans-serif" font-size="14" lengthAdjust="spacing" textLength="147.082" x="868.3442" y="69.9951">store:EmployeeStore</text></g><g class="participant participant-tail" data-participant="Store"><rect fill="#E3E3E3" height="30.2969" rx="2.5" ry="2.5" style="stroke:#181818;stroke-width:0.5;" width="161.082" x="861.3442" y="759.9531"/><text fill="#000000" font-family="sans-serif" font-size="14" lengthAdjust="spacing" textLength="147.082" x="868.3442" y="779.9482">store:EmployeeStore</text></g><g><title>DGS Administrator</title><rect fill="#FFFFFF" height="651.6563" style="stroke:#181818;stroke-width:1;" width="10" x="68.3242" y="91.2969"/></g><g><title>.ListEmployeeByRoleView</title><rect fill="#FFFFFF" height="152.7969" style="stroke:#181818;stroke-width:1;" width="10" x="399.5098" y="112.4297"/></g><g><title>.ListEmployeeByRoleView</title><rect fill="#FFFFFF" height="71.2656" style="stroke:#181818;stroke-width:1;" width="10" x="399.5098" y="294.3594"/></g><g><title>.ListEmployeeByRoleView</title><rect fill="#FFFFFF" height="348.1953" style="stroke:#181818;stroke-width:1;" width="10" x="399.5098" y="394.7578"/></g><g><title>.ListEmployeeByRoleController</title><rect fill="#FFFFFF" height="94.5313" style="stroke:#181818;stroke-width:1;" width="10" x="622.0732" y="141.5625"/></g><g><title>.ListEmployeeByRoleController</title><rect fill="#FFFFFF" height="289.9297" style="stroke:#181818;stroke-width:1;" width="10" x="622.0732" y="423.8906"/></g><g><title>.Company</title><rect fill="#FFFFFF" height="29.1328" style="stroke:#181818;stroke-width:1;" width="10" x="803.6846" y="453.0234"/></g><g><title>store.EmployeeStore</title><rect fill="#FFFFFF" height="173.3984" style="stroke:#181818;stroke-width:1;" width="10" x="936.8853" y="511.2891"/></g><g><title>store.EmployeeStore</title><rect fill="#FFFFFF" height="28" style="stroke:#181818;stroke-width:1;" width="10" x="941.8853" y="548.4219"/></g><g><title>store.EmployeeStore</title><rect fill="#FFFFFF" height="28" style="stroke:#181818;stroke-width:1;" width="10" x="941.8853" y="620.5547"/></g><g class="message" data-participant-1="Admin" data-participant-2="View"><polygon fill="#181818" points="387.5098,108.4297,397.5098,112.4297,387.5098,116.4297,391.5098,112.4297" style="stroke:#181818;stroke-width:1;"/><line style="stroke:#181818;stroke-width:1;" x1="78.3242" x2="393.5098" y1="112.4297" y2="112.4297"/><text fill="#000000" font-family="sans-serif" font-size="13" font-weight="bold" lengthAdjust="spacing" textLength="9.0454" x="85.3242" y="107.3638">1</text><text fill="#000000" font-family="sans-serif" font-size="13" lengthAdjust="spacing" textLength="193.6416" x="98.3696" y="107.3638">asks to list employees by role</text></g><g class="message" data-participant-1="View" data-participant-2="Controller"><polygon fill="#181818" points="610.0732,137.5625,620.0732,141.5625,610.0732,145.5625,614.0732,141.5625" style="stroke:#181818;stroke-width:1;"/><line style="stroke:#181818;stroke-width:1;" x1="409.5098" x2="616.0732" y1="141.5625" y2="141.5625"/><text fill="#000000" font-family="sans-serif" font-size="13" font-weight="bold" lengthAdjust="spacing" textLength="9.0454" x="416.5098" y="136.4966">2</text><text fill="#000000" font-family="sans-serif" font-size="13" lengthAdjust="spacing" textLength="66.8599" x="429.5552" y="136.4966">getRoles()</text></g><path d="M637,154.5625 L637,209.5625 L796,209.5625 L796,164.5625 L786,154.5625 L637,154.5625" fill="#FAFAFA" style="stroke:#181818;stroke-width:0.5;"/><path d="M786,154.5625 L786,164.5625 L796,164.5625 L786,154.5625" fill="#FAFAFA" style="stroke:#181818;stroke-width:0.5;"/><text fill="#000000" font-family="sans-serif" font-size="13" lengthAdjust="spacing" textLength="133.9482" x="643" y="171.6294">Roles are defined by</text><text fill="#000000" font-family="sans-serif" font-size="13" lengthAdjust="spacing" textLength="138.8232" x="643" y="186.7622">Employee subclasses</text><text fill="#000000" font-family="sans-serif" font-size="13" lengthAdjust="spacing" textLength="137.2998" x="643" y="201.895">(Nurse, Receptionist)</text><g class="message" data-participant-1="Controller" data-participant-2="View"><polygon fill="#181818" points="420.5098,232.0938,410.5098,236.0938,420.5098,240.0938,416.5098,236.0938" style="stroke:#181818;stroke-width:1;"/><line style="stroke:#181818;stroke-width:1;stroke-dasharray:2,2;" x1="414.5098" x2="626.0732" y1="236.0938" y2="236.0938"/><text fill="#000000" font-family="sans-serif" font-size="13" font-weight="bold" lengthAdjust="spacing" textLength="9.0454" x="426.5098" y="231.0278">3</text><text fill="#000000" font-family="sans-serif" font-size="13" lengthAdjust="spacing" textLength="71.5698" x="439.5552" y="231.0278">list of roles</text></g><g class="message" data-participant-1="View" data-participant-2="Admin"><polygon fill="#181818" points="89.3242,261.2266,79.3242,265.2266,89.3242,269.2266,85.3242,265.2266" style="stroke:#181818;stroke-width:1;"/><line style="stroke:#181818;stroke-width:1;stroke-dasharray:2,2;" x1="83.3242" x2="403.5098" y1="265.2266" y2="265.2266"/><text fill="#000000" font-family="sans-serif" font-size="13" font-weight="bold" lengthAdjust="spacing" textLength="9.0454" x="95.3242" y="260.1606">4</text><text fill="#000000" font-family="sans-serif" font-size="13" lengthAdjust="spacing" textLength="178.8833" x="108.3696" y="260.1606">shows list of available roles</text></g><g class="message" data-participant-1="Admin" data-participant-2="View"><polygon fill="#181818" points="387.5098,290.3594,397.5098,294.3594,387.5098,298.3594,391.5098,294.3594" style="stroke:#181818;stroke-width:1;"/><line style="stroke:#181818;stroke-width:1;" x1="78.3242" x2="393.5098" y1="294.3594" y2="294.3594"/><text fill="#000000" font-family="sans-serif" font-size="13" font-weight="bold" lengthAdjust="spacing" textLength="9.0454" x="85.3242" y="289.2935">5</text><text fill="#000000" font-family="sans-serif" font-size="13" lengthAdjust="spacing" textLength="86.5376" x="98.3696" y="289.2935">selects a role</text></g><g class="message" data-participant-1="View" data-participant-2="View"><line style="stroke:#181818;stroke-width:1;" x1="409.5098" x2="451.5098" y1="323.4922" y2="323.4922"/><line style="stroke:#181818;stroke-width:1;" x1="451.5098" x2="451.5098" y1="323.4922" y2="336.4922"/><line style="stroke:#181818;stroke-width:1;" x1="410.5098" x2="451.5098" y1="336.4922" y2="336.4922"/><polygon fill="#181818" points="420.5098,332.4922,410.5098,336.4922,420.5098,340.4922,416.5098,336.4922" style="stroke:#181818;stroke-width:1;"/><text fill="#000000" font-family="sans-serif" font-size="13" font-weight="bold" lengthAdjust="spacing" textLength="9.0454" x="416.5098" y="318.4263">6</text><text fill="#000000" font-family="sans-serif" font-size="13" lengthAdjust="spacing" textLength="126.5977" x="429.5552" y="318.4263">keeps selected role</text></g><g class="message" data-participant-1="View" data-participant-2="Admin"><polygon fill="#181818" points="89.3242,361.625,79.3242,365.625,89.3242,369.625,85.3242,365.625" style="stroke:#181818;stroke-width:1;"/><line style="stroke:#181818;stroke-width:1;stroke-dasharray:2,2;" x1="83.3242" x2="403.5098" y1="365.625" y2="365.625"/><text fill="#000000" font-family="sans-serif" font-size="13" font-weight="bold" lengthAdjust="spacing" textLength="9.0454" x="95.3242" y="360.5591">7</text><text fill="#000000" font-family="sans-serif" font-size="13" lengthAdjust="spacing" textLength="143.0127" x="108.3696" y="360.5591">requests confirmation</text></g><g class="message" data-participant-1="Admin" data-participant-2="View"><polygon fill="#181818" points="387.5098,390.7578,397.5098,394.7578,387.5098,398.7578,391.5098,394.7578" style="stroke:#181818;stroke-width:1;"/><line style="stroke:#181818;stroke-width:1;" x1="78.3242" x2="393.5098" y1="394.7578" y2="394.7578"/><text fill="#000000" font-family="sans-serif" font-size="13" font-weight="bold" lengthAdjust="spacing" textLength="9.0454" x="85.3242" y="389.6919">8</text><text fill="#000000" font-family="sans-serif" font-size="13" lengthAdjust="spacing" textLength="56.3101" x="98.3696" y="389.6919">confirms</text></g><g class="message" data-participant-1="View" data-participant-2="Controller"><polygon fill="#181818" points="610.0732,419.8906,620.0732,423.8906,610.0732,427.8906,614.0732,423.8906" style="stroke:#181818;stroke-width:1;"/><line style="stroke:#181818;stroke-width:1;" x1="409.5098" x2="616.0732" y1="423.8906" y2="423.8906"/><text fill="#000000" font-family="sans-serif" font-size="13" font-weight="bold" lengthAdjust="spacing" textLength="9.0454" x="416.5098" y="418.8247">9</text><text fill="#000000" font-family="sans-serif" font-size="13" lengthAdjust="spacing" textLength="172.7642" x="429.5552" y="418.8247">getEmployeesByRole(role)</text></g><g class="message" data-participant-1="Controller" data-participant-2="Company"><polygon fill="#181818" points="791.6846,449.0234,801.6846,453.0234,791.6846,457.0234,795.6846,453.0234" style="stroke:#181818;stroke-width:1;"/><line style="stroke:#181818;stroke-width:1;" x1="632.0732" x2="797.6846" y1="453.0234" y2="453.0234"/><text fill="#000000" font-family="sans-serif" font-size="13" font-weight="bold" lengthAdjust="spacing" textLength="18.0908" x="639.0732" y="447.9575">10</text><text fill="#000000" font-family="sans-serif" font-size="13" lengthAdjust="spacing" textLength="130.5205" x="661.1641" y="447.9575">getEmployeeStore()</text></g><g class="message" data-participant-1="Company" data-participant-2="Controller"><polygon fill="#181818" points="643.0732,478.1563,633.0732,482.1563,643.0732,486.1563,639.0732,482.1563" style="stroke:#181818;stroke-width:1;"/><line style="stroke:#181818;stroke-width:1;stroke-dasharray:2,2;" x1="637.0732" x2="807.6846" y1="482.1563" y2="482.1563"/><text fill="#000000" font-family="sans-serif" font-size="13" font-weight="bold" lengthAdjust="spacing" textLength="18.0908" x="649.0732" y="477.0903">11</text><text fill="#000000" font-family="sans-serif" font-size="13" lengthAdjust="spacing" textLength="33.1665" x="671.1641" y="477.0903">store</text></g><g class="message" data-participant-1="Controller" data-participant-2="Store"><polygon fill="#181818" points="924.8853,507.2891,934.8853,511.2891,924.8853,515.2891,928.8853,511.2891" style="stroke:#181818;stroke-width:1;"/><line style="stroke:#181818;stroke-width:1;" x1="632.0732" x2="930.8853" y1="511.2891" y2="511.2891"/><text fill="#000000" font-family="sans-serif" font-size="13" font-weight="bold" lengthAdjust="spacing" textLength="18.0908" x="639.0732" y="506.2231">12</text><text fill="#000000" font-family="sans-serif" font-size="13" lengthAdjust="spacing" textLength="172.7642" x="661.1641" y="506.2231">getEmployeesByRole(role)</text></g><g class="message" data-participant-1="Store" data-participant-2="Store"><line style="stroke:#181818;stroke-width:1;" x1="951.8853" x2="993.8853" y1="540.4219" y2="540.4219"/><line style="stroke:#181818;stroke-width:1;" x1="993.8853" x2="993.8853" y1="540.4219" y2="553.4219"/><line style="stroke:#181818;stroke-width:1;" x1="952.8853" x2="993.8853" y1="553.4219" y2="553.4219"/><polygon fill="#181818" points="962.8853,549.4219,952.8853,553.4219,962.8853,557.4219,958.8853,553.4219" style="stroke:#181818;stroke-width:1;"/><text fill="#000000" font-family="sans-serif" font-size="13" font-weight="bold" lengthAdjust="spacing" textLength="18.0908" x="958.8853" y="535.356">13</text><text fill="#000000" font-family="sans-serif" font-size="13" lengthAdjust="spacing" textLength="147.9893" x="980.9761" y="535.356">filterByClassType(role)</text></g><g class="message" data-participant-1="Store" data-participant-2="Store"><line style="stroke:#181818;stroke-width:1;" x1="951.8853" x2="993.8853" y1="612.5547" y2="612.5547"/><line style="stroke:#181818;stroke-width:1;" x1="993.8853" x2="993.8853" y1="612.5547" y2="625.5547"/><line style="stroke:#181818;stroke-width:1;" x1="952.8853" x2="993.8853" y1="625.5547" y2="625.5547"/><polygon fill="#181818" points="962.8853,621.5547,952.8853,625.5547,962.8853,629.5547,958.8853,625.5547" style="stroke:#181818;stroke-width:1;"/><text fill="#000000" font-family="sans-serif" font-size="13" font-weight="bold" lengthAdjust="spacing" textLength="18.0908" x="958.8853" y="607.4888">14</text><text fill="#000000" font-family="sans-serif" font-size="13" lengthAdjust="spacing" textLength="159.4912" x="980.9761" y="607.4888">sortByName(filteredList)</text></g><g class="message" data-participant-1="Store" data-participant-2="Controller"><polygon fill="#181818" points="643.0732,680.6875,633.0732,684.6875,643.0732,688.6875,639.0732,684.6875" style="stroke:#181818;stroke-width:1;"/><line style="stroke:#181818;stroke-width:1;stroke-dasharray:2,2;" x1="637.0732" x2="940.8853" y1="684.6875" y2="684.6875"/><text fill="#000000" font-family="sans-serif" font-size="13" font-weight="bold" lengthAdjust="spacing" textLength="18.0908" x="649.0732" y="679.6216">15</text><text fill="#000000" font-family="sans-serif" font-size="13" lengthAdjust="spacing" textLength="128.5273" x="671.1641" y="679.6216">sortedEmployeeList</text></g><g class="message" data-participant-1="Controller" data-participant-2="View"><polygon fill="#181818" points="420.5098,709.8203,410.5098,713.8203,420.5098,717.8203,416.5098,713.8203" style="stroke:#181818;stroke-width:1;"/><line style="stroke:#181818;stroke-width:1;stroke-dasharray:2,2;" x1="414.5098" x2="626.0732" y1="713.8203" y2="713.8203"/><text fill="#000000" font-family="sans-serif" font-size="13" font-weight="bold" lengthAdjust="spacing" textLength="18.0908" x="426.5098" y="708.7544">16</text><text fill="#000000" font-family="sans-serif" font-size="13" lengthAdjust="spacing" textLength="128.5273" x="448.6006" y="708.7544">sortedEmployeeList</text></g><g class="message" data-participant-1="View" data-participant-2="Admin"><polygon fill="#181818" points="84.3242,738.9531,74.3242,742.9531,84.3242,746.9531,80.3242,742.9531" style="stroke:#181818;stroke-width:1;"/><line style="stroke:#181818;stroke-width:1;stroke-dasharray:2,2;" x1="78.3242" x2="403.5098" y1="742.9531" y2="742.9531"/><text fill="#000000" font-family="sans-serif" font-size="13" font-weight="bold" lengthAdjust="spacing" textLength="18.0908" x="90.3242" y="737.8872">17</text><text fill="#000000" font-family="sans-serif" font-size="13" lengthAdjust="spacing" textLength="275.0947" x="112.415" y="737.8872">shows list of employees with selected role</text></g><!--SRC=[hLHDRzim3BtxLn2vp0MMF-13WIKTTkbwQ8gTUc5i9X4YIwueD_2_7or_H7RJBDYc4qq_FZwIelYeJ8KEIoYjiVd1sPB0kveI7lzKc1znJnlVQ097kKUprp603rZOap9xsA5cIXAilJLrkIKdTkwjWyN3ZmryAqfb57k7ube0SkT9XCMhN5LeF2ooHq5yBojj6w9Lysmr_L9q2l3M-2DwROrtLclgKfm_Pv5hMuhLzA1WJn4iAYaRo3VjLm07AnIctj5JNqG2Se89o_kW53917ncy1IqgWNecXcq38eb2o4WJYWkkzWG28JhB5xez-RP2Jkz6t1WUrGdH-H8pE1Bf1W6388I2WWu6hYlhl4oH8LqXarXWiFLlSutC0X7Fmy-x2RUnajUf_S63tKLvCWWg0Hr9YfqoL4Z9hsPePKJxQjAdsZ5zXMVAgVBAjXTacYOgO7bkRMYff0q5ZFY2BZLarbKXwGQLoTMr9nwvy1sLngscY3LYF4zeFcScBNiX5TyyrpxmI5Hn7ovT2j6VgtNqLXDBdjoQdN8bjlswNMKVnNzpxuRPSRTaQQlq-YtyT8RtmxfDcSDQfTFHHxpTWiBi34pBkUIml1Fuv6fqR5Sa1ZMtb3wHsJyDSvKTMSIwKzgJMpNhTWjUckeIwGNY-U-ef5ipi-pvgdd2aj9E11MF7pRkVwR-C1WHGCNGqpPtSZllvQVW2kM_lGVd5_ka_66sfXVNBd84ojy0]--></g></svg>