<svg xmlns="http://www.w3.org/2000/svg" xmlns:xlink="http://www.w3.org/1999/xlink" contentStyleType="text/css" data-diagram-type="SEQUENCE" height="298px" preserveAspectRatio="none" style="width:482px;height:298px;background:#FFFFFF;" version="1.1" viewBox="0 0 482 298" width="482px" zoomAndPan="magnify"><defs/><g><g><title>DGS Administrator</title><rect fill="#FFFFFF" height="108.5313" style="stroke:#181818;stroke-width:1;" width="10" x="68.3242" y="91.2969"/></g><g><title>.System</title><rect fill="#FFFFFF" height="29.1328" style="stroke:#181818;stroke-width:1;" width="10" x="435.6851" y="112.4297"/></g><g><title>.System</title><rect fill="#FFFFFF" height="29.1328" style="stroke:#181818;stroke-width:1;" width="10" x="435.6851" y="170.6953"/></g><g><title>DGS Administrator</title><rect fill="#000000" fill-opacity="0.00000" height="136.5313" width="8" x="69.3242" y="81.2969"/><line style="stroke:#181818;stroke-width:0.5;stroke-dasharray:5,5;" x1="73" x2="73" y1="81.2969" y2="217.8281"/></g><g><title>.System</title><rect fill="#000000" fill-opacity="0.00000" height="136.5313" width="8" x="436.6851" y="81.2969"/><line style="stroke:#181818;stroke-width:0.5;stroke-dasharray:5,5;" x1="440.2236" x2="440.2236" y1="81.2969" y2="217.8281"/></g><g class="participant participant-head" data-participant="Admin"><text fill="#000000" font-family="sans-serif" font-size="14" lengthAdjust="spacing" textLength="130.6484" x="5" y="77.9951">DGS Administrator</text><ellipse cx="73.3242" cy="13.5" fill="#E3E3E3" rx="8" ry="8" style="stroke:#181818;stroke-width:0.5;"/><path d="M73.3242,21.5 L73.3242,48.5 M60.3242,29.5 L86.3242,29.5 M73.3242,48.5 L60.3242,63.5 M73.3242,48.5 L86.3242,63.5" fill="none" style="stroke:#181818;stroke-width:0.5;"/></g><g class="participant participant-tail" data-participant="Admin"><text fill="#000000" font-family="sans-serif" font-size="14" lengthAdjust="spacing" textLength="130.6484" x="5" y="229.8232">DGS Administrator</text><ellipse cx="73.3242" cy="241.625" fill="#E3E3E3" rx="8" ry="8" style="stroke:#181818;stroke-width:0.5;"/><path d="M73.3242,249.625 L73.3242,276.625 M60.3242,257.625 L86.3242,257.625 M73.3242,276.625 L60.3242,291.625 M73.3242,276.625 L86.3242,291.625" fill="none" style="stroke:#181818;stroke-width:0.5;"/></g><g class="participant participant-head" data-participant="System"><rect fill="#E3E3E3" height="30.2969" rx="2.5" ry="2.5" style="stroke:#181818;stroke-width:0.5;" width="70.9229" x="405.2236" y="50"/><text fill="#000000" font-family="sans-serif" font-size="14" lengthAdjust="spacing" textLength="56.9229" x="412.2236" y="69.9951">:System</text></g><g class="participant participant-tail" data-participant="System"><rect fill="#E3E3E3" height="30.2969" rx="2.5" ry="2.5" style="stroke:#181818;stroke-width:0.5;" width="70.9229" x="405.2236" y="216.8281"/><text fill="#000000" font-family="sans-serif" font-size="14" lengthAdjust="spacing" textLength="56.9229" x="412.2236" y="236.8232">:System</text></g><g><title>DGS Administrator</title><rect fill="#FFFFFF" height="108.5313" style="stroke:#181818;stroke-width:1;" width="10" x="68.3242" y="91.2969"/></g><g><title>.System</title><rect fill="#FFFFFF" height="29.1328" style="stroke:#181818;stroke-width:1;" width="10" x="435.6851" y="112.4297"/></g><g><title>.System</title><rect fill="#FFFFFF" height="29.1328" style="stroke:#181818;stroke-width:1;" width="10" x="435.6851" y="170.6953"/></g><g class="message" data-participant-1="Admin" data-participant-2="System"><polygon fill="#181818" points="423.6851,108.4297,433.6851,112.4297,423.6851,116.4297,427.6851,112.4297" style="stroke:#181818;stroke-width:1;"/><line style="stroke:#181818;stroke-width:1;" x1="78.3242" x2="429.6851" y1="112.4297" y2="112.4297"/><text fill="#000000" font-family="sans-serif" font-size="13" font-weight="bold" lengthAdjust="spacing" textLength="9.0454" x="85.3242" y="107.3638">1</text><text fill="#000000" font-family="sans-serif" font-size="13" lengthAdjust="spacing" textLength="193.6416" x="98.3696" y="107.3638">asks to list employees by role</text></g><g class="message" data-participant-1="System" data-participant-2="Admin"><polygon fill="#181818" points="89.3242,137.5625,79.3242,141.5625,89.3242,145.5625,85.3242,141.5625" style="stroke:#181818;stroke-width:1;"/><line style="stroke:#181818;stroke-width:1;stroke-dasharray:2,2;" x1="83.3242" x2="439.6851" y1="141.5625" y2="141.5625"/><text fill="#000000" font-family="sans-serif" font-size="13" font-weight="bold" lengthAdjust="spacing" textLength="9.0454" x="95.3242" y="136.4966">2</text><text fill="#000000" font-family="sans-serif" font-size="13" lengthAdjust="spacing" textLength="320.3154" x="108.3696" y="136.4966">shows list of available roles (Nurse, Receptionist)</text></g><g class="message" data-participant-1="Admin" data-participant-2="System"><polygon fill="#181818" points="423.6851,166.6953,433.6851,170.6953,423.6851,174.6953,427.6851,170.6953" style="stroke:#181818;stroke-width:1;"/><line style="stroke:#181818;stroke-width:1;" x1="78.3242" x2="429.6851" y1="170.6953" y2="170.6953"/><text fill="#000000" font-family="sans-serif" font-size="13" font-weight="bold" lengthAdjust="spacing" textLength="9.0454" x="85.3242" y="165.6294">3</text><text fill="#000000" font-family="sans-serif" font-size="13" lengthAdjust="spacing" textLength="86.5376" x="98.3696" y="165.6294">selects a role</text></g><g class="message" data-participant-1="System" data-participant-2="Admin"><polygon fill="#181818" points="84.3242,195.8281,74.3242,199.8281,84.3242,203.8281,80.3242,199.8281" style="stroke:#181818;stroke-width:1;"/><line style="stroke:#181818;stroke-width:1;stroke-dasharray:2,2;" x1="78.3242" x2="439.6851" y1="199.8281" y2="199.8281"/><text fill="#000000" font-family="sans-serif" font-size="13" font-weight="bold" lengthAdjust="spacing" textLength="9.0454" x="90.3242" y="194.7622">4</text><text fill="#000000" font-family="sans-serif" font-size="13" lengthAdjust="spacing" textLength="275.0947" x="103.3696" y="194.7622">shows list of employees with selected role</text></g><!--SRC=[hP1BQiD038RtFeNmgeNc0buK2eNkkgXF88yLU_3Co8pa6Dy-ygD9e5bMAw77f_-N33wDc352vCIkpnm9D4zKoAqpeXkmergNG939AQOkF0v8ZotFFdLmnY1K53Wffoasb2rtoXdApwyQFjheanVDQAKIKFPAOHJrpe-O5CggNaGfRkqztHZ-Wah7V04MMmgdzsC8AbiO19GXs0cWE0PUY0IQ1JARtdNf1lebmn47v6Iy7LoPAvvbX_4Py88-OBD-m602BzzJ5dg37t8qgkVLr-k6Q-dfbRzwXO8zKm3_Gz_Tx-orFzZKtj5FP3sKDkWL]--></g></svg>