<svg xmlns="http://www.w3.org/2000/svg" xmlns:xlink="http://www.w3.org/1999/xlink" contentStyleType="text/css" data-diagram-type="SEQUENCE" height="298px" preserveAspectRatio="none" style="width:419px;height:298px;background:#FFFFFF;" version="1.1" viewBox="0 0 419 298" width="419px" zoomAndPan="magnify"><defs/><g><g><title>Administrator</title><rect fill="#FFFFFF" height="108.5313" style="stroke:#181818;stroke-width:1;" width="10" x="50.8413" y="91.2969"/></g><g><title>.System</title><rect fill="#FFFFFF" height="29.1328" style="stroke:#181818;stroke-width:1;" width="10" x="372.9814" y="112.4297"/></g><g><title>.System</title><rect fill="#FFFFFF" height="29.1328" style="stroke:#181818;stroke-width:1;" width="10" x="372.9814" y="170.6953"/></g><g><title>Administrator</title><rect fill="#000000" fill-opacity="0.00000" height="136.5313" width="8" x="51.8413" y="81.2969"/><line style="stroke:#181818;stroke-width:0.5;stroke-dasharray:5,5;" x1="55" x2="55" y1="81.2969" y2="217.8281"/></g><g><title>.System</title><rect fill="#000000" fill-opacity="0.00000" height="136.5313" width="8" x="373.9814" y="81.2969"/><line style="stroke:#181818;stroke-width:0.5;stroke-dasharray:5,5;" x1="377.52" x2="377.52" y1="81.2969" y2="217.8281"/></g><g class="participant participant-head" data-participant="Admin"><text fill="#000000" font-family="sans-serif" font-size="14" lengthAdjust="spacing" textLength="95.6826" x="5" y="77.9951">Administrator</text><ellipse cx="55.8413" cy="13.5" fill="#E3E3E3" rx="8" ry="8" style="stroke:#181818;stroke-width:0.5;"/><path d="M55.8413,21.5 L55.8413,48.5 M42.8413,29.5 L68.8413,29.5 M55.8413,48.5 L42.8413,63.5 M55.8413,48.5 L68.8413,63.5" fill="none" style="stroke:#181818;stroke-width:0.5;"/></g><g class="participant participant-tail" data-participant="Admin"><text fill="#000000" font-family="sans-serif" font-size="14" lengthAdjust="spacing" textLength="95.6826" x="5" y="229.8232">Administrator</text><ellipse cx="55.8413" cy="241.625" fill="#E3E3E3" rx="8" ry="8" style="stroke:#181818;stroke-width:0.5;"/><path d="M55.8413,249.625 L55.8413,276.625 M42.8413,257.625 L68.8413,257.625 M55.8413,276.625 L42.8413,291.625 M55.8413,276.625 L68.8413,291.625" fill="none" style="stroke:#181818;stroke-width:0.5;"/></g><g class="participant participant-head" data-participant="System"><rect fill="#E3E3E3" height="30.2969" rx="2.5" ry="2.5" style="stroke:#181818;stroke-width:0.5;" width="70.9229" x="342.52" y="50"/><text fill="#000000" font-family="sans-serif" font-size="14" lengthAdjust="spacing" textLength="56.9229" x="349.52" y="69.9951">:System</text></g><g class="participant participant-tail" data-participant="System"><rect fill="#E3E3E3" height="30.2969" rx="2.5" ry="2.5" style="stroke:#181818;stroke-width:0.5;" width="70.9229" x="342.52" y="216.8281"/><text fill="#000000" font-family="sans-serif" font-size="14" lengthAdjust="spacing" textLength="56.9229" x="349.52" y="236.8232">:System</text></g><g><title>Administrator</title><rect fill="#FFFFFF" height="108.5313" style="stroke:#181818;stroke-width:1;" width="10" x="50.8413" y="91.2969"/></g><g><title>.System</title><rect fill="#FFFFFF" height="29.1328" style="stroke:#181818;stroke-width:1;" width="10" x="372.9814" y="112.4297"/></g><g><title>.System</title><rect fill="#FFFFFF" height="29.1328" style="stroke:#181818;stroke-width:1;" width="10" x="372.9814" y="170.6953"/></g><g class="message" data-participant-1="Admin" data-participant-2="System"><polygon fill="#181818" points="360.9814,108.4297,370.9814,112.4297,360.9814,116.4297,364.9814,112.4297" style="stroke:#181818;stroke-width:1;"/><line style="stroke:#181818;stroke-width:1;" x1="60.8413" x2="366.9814" y1="112.4297" y2="112.4297"/><text fill="#000000" font-family="sans-serif" font-size="13" font-weight="bold" lengthAdjust="spacing" textLength="9.0454" x="67.8413" y="107.3638">1</text><text fill="#000000" font-family="sans-serif" font-size="13" lengthAdjust="spacing" textLength="193.6416" x="80.8867" y="107.3638">asks to list employees by role</text></g><g class="message" data-participant-1="System" data-participant-2="Admin"><polygon fill="#181818" points="71.8413,137.5625,61.8413,141.5625,71.8413,145.5625,67.8413,141.5625" style="stroke:#181818;stroke-width:1;"/><line style="stroke:#181818;stroke-width:1;stroke-dasharray:2,2;" x1="65.8413" x2="376.9814" y1="141.5625" y2="141.5625"/><text fill="#000000" font-family="sans-serif" font-size="13" font-weight="bold" lengthAdjust="spacing" textLength="9.0454" x="77.8413" y="136.4966">2</text><text fill="#000000" font-family="sans-serif" font-size="13" lengthAdjust="spacing" textLength="178.8833" x="90.8867" y="136.4966">shows list of available roles</text></g><g class="message" data-participant-1="Admin" data-participant-2="System"><polygon fill="#181818" points="360.9814,166.6953,370.9814,170.6953,360.9814,174.6953,364.9814,170.6953" style="stroke:#181818;stroke-width:1;"/><line style="stroke:#181818;stroke-width:1;" x1="60.8413" x2="366.9814" y1="170.6953" y2="170.6953"/><text fill="#000000" font-family="sans-serif" font-size="13" font-weight="bold" lengthAdjust="spacing" textLength="9.0454" x="67.8413" y="165.6294">3</text><text fill="#000000" font-family="sans-serif" font-size="13" lengthAdjust="spacing" textLength="86.5376" x="80.8867" y="165.6294">selects a role</text></g><g class="message" data-participant-1="System" data-participant-2="Admin"><polygon fill="#181818" points="66.8413,195.8281,56.8413,199.8281,66.8413,203.8281,62.8413,199.8281" style="stroke:#181818;stroke-width:1;"/><line style="stroke:#181818;stroke-width:1;stroke-dasharray:2,2;" x1="60.8413" x2="376.9814" y1="199.8281" y2="199.8281"/><text fill="#000000" font-family="sans-serif" font-size="13" font-weight="bold" lengthAdjust="spacing" textLength="9.0454" x="72.8413" y="194.7622">4</text><text fill="#000000" font-family="sans-serif" font-size="13" lengthAdjust="spacing" textLength="275.0947" x="85.8867" y="194.7622">shows list of employees with selected role</text></g><!--SRC=[hP11ZiCm24NtFWNAlXV8OgGvGqz079fOiKraIAFSVgZZQIjDbyCA0__niImXhrWmGUBCVYwS2BHivEJPMT4lED5LZqXGo2lcARuFo8mZxo5FSCCev1nkodbB0nNBlNA1xdjC8GVHWlRi00LgnHb1WmyhPeMklnwYb6hxJAi-t56fpJkmg2bSljeGz2PO19GXsWgWj4O-Y0I60mgRruVe2VebGui6kHZl1FTs4UzomlW6UCSGSNXSRp2fmf4-yluw4uhsPGBu7qvUb-r1vyQcyON-OEkjLA4_]--></g></svg>