<svg xmlns="http://www.w3.org/2000/svg" xmlns:xlink="http://www.w3.org/1999/xlink" contentStyleType="text/css" data-diagram-type="SEQUENCE" height="356px" preserveAspectRatio="none" style="width:413px;height:356px;background:#FFFFFF;" version="1.1" viewBox="0 0 413 356" width="413px" zoomAndPan="magnify"><defs/><g><g><title>Administrator</title><rect fill="#FFFFFF" height="175.7969" style="stroke:#181818;stroke-width:1;" width="10" x="50.8413" y="91.2969"/></g><g><title>.System</title><rect fill="#FFFFFF" height="29.1328" style="stroke:#181818;stroke-width:1;" width="10" x="366.729" y="112.4297"/></g><g><title>.System</title><rect fill="#FFFFFF" height="29.1328" style="stroke:#181818;stroke-width:1;" width="10" x="366.729" y="170.6953"/></g><g><title>.System</title><rect fill="#FFFFFF" height="29.1328" style="stroke:#181818;stroke-width:1;" width="10" x="366.729" y="228.9609"/></g><g><title>Administrator</title><rect fill="#000000" fill-opacity="0.00000" height="194.7969" width="8" x="51.8413" y="81.2969"/><line style="stroke:#181818;stroke-width:0.5;stroke-dasharray:5,5;" x1="55" x2="55" y1="81.2969" y2="276.0938"/></g><g><title>.System</title><rect fill="#000000" fill-opacity="0.00000" height="194.7969" width="8" x="367.729" y="81.2969"/><line style="stroke:#181818;stroke-width:0.5;stroke-dasharray:5,5;" x1="371.2676" x2="371.2676" y1="81.2969" y2="276.0938"/></g><g class="participant participant-head" data-participant="Admin"><text fill="#000000" font-family="sans-serif" font-size="14" lengthAdjust="spacing" textLength="95.6826" x="5" y="77.9951">Administrator</text><ellipse cx="55.8413" cy="13.5" fill="#E2E2F0" rx="8" ry="8" style="stroke:#181818;stroke-width:0.5;"/><path d="M55.8413,21.5 L55.8413,48.5 M42.8413,29.5 L68.8413,29.5 M55.8413,48.5 L42.8413,63.5 M55.8413,48.5 L68.8413,63.5" fill="none" style="stroke:#181818;stroke-width:0.5;"/></g><g class="participant participant-tail" data-participant="Admin"><text fill="#000000" font-family="sans-serif" font-size="14" lengthAdjust="spacing" textLength="95.6826" x="5" y="288.0889">Administrator</text><ellipse cx="55.8413" cy="299.8906" fill="#E2E2F0" rx="8" ry="8" style="stroke:#181818;stroke-width:0.5;"/><path d="M55.8413,307.8906 L55.8413,334.8906 M42.8413,315.8906 L68.8413,315.8906 M55.8413,334.8906 L42.8413,349.8906 M55.8413,334.8906 L68.8413,349.8906" fill="none" style="stroke:#181818;stroke-width:0.5;"/></g><g class="participant participant-head" data-participant="System"><rect fill="#E2E2F0" height="30.2969" rx="2.5" ry="2.5" style="stroke:#181818;stroke-width:0.5;" width="70.9229" x="336.2676" y="50"/><text fill="#000000" font-family="sans-serif" font-size="14" lengthAdjust="spacing" textLength="56.9229" x="343.2676" y="69.9951">:System</text></g><g class="participant participant-tail" data-participant="System"><rect fill="#E2E2F0" height="30.2969" rx="2.5" ry="2.5" style="stroke:#181818;stroke-width:0.5;" width="70.9229" x="336.2676" y="275.0938"/><text fill="#000000" font-family="sans-serif" font-size="14" lengthAdjust="spacing" textLength="56.9229" x="343.2676" y="295.0889">:System</text></g><g><title>Administrator</title><rect fill="#FFFFFF" height="175.7969" style="stroke:#181818;stroke-width:1;" width="10" x="50.8413" y="91.2969"/></g><g><title>.System</title><rect fill="#FFFFFF" height="29.1328" style="stroke:#181818;stroke-width:1;" width="10" x="366.729" y="112.4297"/></g><g><title>.System</title><rect fill="#FFFFFF" height="29.1328" style="stroke:#181818;stroke-width:1;" width="10" x="366.729" y="170.6953"/></g><g><title>.System</title><rect fill="#FFFFFF" height="29.1328" style="stroke:#181818;stroke-width:1;" width="10" x="366.729" y="228.9609"/></g><g class="message" data-participant-1="Admin" data-participant-2="System"><polygon fill="#181818" points="354.729,108.4297,364.729,112.4297,354.729,116.4297,358.729,112.4297" style="stroke:#181818;stroke-width:1;"/><line style="stroke:#181818;stroke-width:1;" x1="60.8413" x2="360.729" y1="112.4297" y2="112.4297"/><text fill="#000000" font-family="sans-serif" font-size="13" font-weight="bold" lengthAdjust="spacing" textLength="9.0454" x="67.8413" y="107.3638">1</text><text fill="#000000" font-family="sans-serif" font-size="13" lengthAdjust="spacing" textLength="226.6177" x="80.8867" y="107.3638">asks to specify a new vaccine type</text></g><g class="message" data-participant-1="System" data-participant-2="Admin"><polygon fill="#181818" points="71.8413,137.5625,61.8413,141.5625,71.8413,145.5625,67.8413,141.5625" style="stroke:#181818;stroke-width:1;"/><line style="stroke:#181818;stroke-width:1;stroke-dasharray:2,2;" x1="65.8413" x2="370.729" y1="141.5625" y2="141.5625"/><text fill="#000000" font-family="sans-serif" font-size="13" font-weight="bold" lengthAdjust="spacing" textLength="9.0454" x="77.8413" y="136.4966">2</text><text fill="#000000" font-family="sans-serif" font-size="13" lengthAdjust="spacing" textLength="216.0615" x="90.8867" y="136.4966">requests data (code, description)</text></g><g class="message" data-participant-1="Admin" data-participant-2="System"><polygon fill="#181818" points="354.729,166.6953,364.729,170.6953,354.729,174.6953,358.729,170.6953" style="stroke:#181818;stroke-width:1;"/><line style="stroke:#181818;stroke-width:1;" x1="60.8413" x2="360.729" y1="170.6953" y2="170.6953"/><text fill="#000000" font-family="sans-serif" font-size="13" font-weight="bold" lengthAdjust="spacing" textLength="9.0454" x="67.8413" y="165.6294">3</text><text fill="#000000" font-family="sans-serif" font-size="13" lengthAdjust="spacing" textLength="139.312" x="80.8867" y="165.6294">types requested data</text></g><g class="message" data-participant-1="System" data-participant-2="Admin"><polygon fill="#181818" points="71.8413,195.8281,61.8413,199.8281,71.8413,203.8281,67.8413,199.8281" style="stroke:#181818;stroke-width:1;"/><line style="stroke:#181818;stroke-width:1;stroke-dasharray:2,2;" x1="65.8413" x2="370.729" y1="199.8281" y2="199.8281"/><text fill="#000000" font-family="sans-serif" font-size="13" font-weight="bold" lengthAdjust="spacing" textLength="9.0454" x="77.8413" y="194.7622">4</text><text fill="#000000" font-family="sans-serif" font-size="13" lengthAdjust="spacing" textLength="268.8423" x="90.8867" y="194.7622">shows all data and requests confirmation</text></g><g class="message" data-participant-1="Admin" data-participant-2="System"><polygon fill="#181818" points="354.729,224.9609,364.729,228.9609,354.729,232.9609,358.729,228.9609" style="stroke:#181818;stroke-width:1;"/><line style="stroke:#181818;stroke-width:1;" x1="60.8413" x2="360.729" y1="228.9609" y2="228.9609"/><text fill="#000000" font-family="sans-serif" font-size="13" font-weight="bold" lengthAdjust="spacing" textLength="9.0454" x="67.8413" y="223.895">5</text><text fill="#000000" font-family="sans-serif" font-size="13" lengthAdjust="spacing" textLength="115.1909" x="80.8867" y="223.895">confirms the data</text></g><g class="message" data-participant-1="System" data-participant-2="Admin"><polygon fill="#181818" points="71.8413,254.0938,61.8413,258.0938,71.8413,262.0938,67.8413,258.0938" style="stroke:#181818;stroke-width:1;"/><line style="stroke:#181818;stroke-width:1;stroke-dasharray:2,2;" x1="65.8413" x2="370.729" y1="258.0938" y2="258.0938"/><text fill="#000000" font-family="sans-serif" font-size="13" font-weight="bold" lengthAdjust="spacing" textLength="9.0454" x="77.8413" y="253.0278">6</text><text fill="#000000" font-family="sans-serif" font-size="13" lengthAdjust="spacing" textLength="170.6948" x="90.8867" y="253.0278">informs operation success</text></g><!--SRC=[TOz1JiGm34NtFOKr6q2YTDy54cVW1CPngKNZXDYTKMzFcWvYKrQ9_Vz_NtwOtREDmv0NL5_Zya8f3iRVAojn7mG_2yQkmzKJaiiLdI5fctMD7rogHfuANDv251NpWdMy01gqJPUnk93aoeVB-BwPSspoyMtvWtluk_P0_tetZDNxPU09B3F9j062yWskI2JAu5lcxh12NrCjFaBPRp0t2EW8ZvG2FqDWeoBP9UdJIT6EijyaXnOzGTkSRWQuB0SRDVorKT99IiIzugJXBjTpPluFBpgbtP8obyO1MudOx0S0]--></g></svg>