<svg xmlns="http://www.w3.org/2000/svg" xmlns:xlink="http://www.w3.org/1999/xlink" contentStyleType="text/css" data-diagram-type="CLASS" height="767px" preserveAspectRatio="none" style="width:233px;height:767px;background:#FFFFFF;" version="1.1" viewBox="0 0 233 767" width="233px" zoomAndPan="magnify"><defs/><g><!--class ListVaccinesUI--><g class="entity" data-entity="ListVaccinesUI" data-source-line="4" data-uid="ent0002" id="entity_ListVaccinesUI"><rect fill="#F1F1F1" height="42.2969" rx="2.5" ry="2.5" style="stroke:#181818;stroke-width:0.5;" width="107.0693" x="92.41" y="7"/><text fill="#000000" font-family="sans-serif" font-size="14" lengthAdjust="spacing" textLength="101.0693" x="95.41" y="24.9951">ListVaccinesUI</text><line style="stroke:#181818;stroke-width:0.5;" x1="93.41" x2="198.4793" y1="33.2969" y2="33.2969"/><line style="stroke:#181818;stroke-width:0.5;" x1="93.41" x2="198.4793" y1="41.2969" y2="41.2969"/></g><!--class ListVaccinesController--><g class="entity" data-entity="ListVaccinesController" data-source-line="7" data-uid="ent0003" id="entity_ListVaccinesController"><rect fill="#F1F1F1" height="58.5938" rx="2.5" ry="2.5" style="stroke:#181818;stroke-width:0.5;" width="161.8662" x="65.01" y="110.29"/><text fill="#000000" font-family="sans-serif" font-size="14" lengthAdjust="spacing" textLength="155.8662" x="68.01" y="128.2851">ListVaccinesController</text><line style="stroke:#181818;stroke-width:0.5;" x1="66.01" x2="225.8762" y1="136.5869" y2="136.5869"/><line style="stroke:#181818;stroke-width:0.5;" x1="66.01" x2="225.8762" y1="144.5869" y2="144.5869"/><text fill="#000000" font-family="sans-serif" font-size="14" lengthAdjust="spacing" textLength="125.043" x="71.01" y="161.582">+getVaccineList()</text></g><!--class Company--><g class="entity" data-entity="Company" data-source-line="11" data-uid="ent0004" id="entity_Company"><rect fill="#F1F1F1" height="58.5938" rx="2.5" ry="2.5" style="stroke:#181818;stroke-width:0.5;" width="149.8809" x="7" y="229.89"/><text fill="#000000" font-family="sans-serif" font-size="14" lengthAdjust="spacing" textLength="66.6025" x="48.6392" y="247.8851">Company</text><line style="stroke:#181818;stroke-width:0.5;" x1="8" x2="155.8809" y1="256.1869" y2="256.1869"/><line style="stroke:#181818;stroke-width:0.5;" x1="8" x2="155.8809" y1="264.1869" y2="264.1869"/><text fill="#000000" font-family="sans-serif" font-size="14" lengthAdjust="spacing" textLength="137.8809" x="13" y="281.182">+getVaccineStore()</text></g><!--class VaccineStore--><g class="entity" data-entity="VaccineStore" data-source-line="15" data-uid="ent0005" id="entity_VaccineStore"><rect fill="#F1F1F1" height="58.5938" rx="2.5" ry="2.5" style="stroke:#181818;stroke-width:0.5;" width="98.2373" x="96.82" y="365.48"/><text fill="#000000" font-family="sans-serif" font-size="14" lengthAdjust="spacing" textLength="92.2373" x="99.82" y="383.4751">VaccineStore</text><line style="stroke:#181818;stroke-width:0.5;" x1="97.82" x2="194.0573" y1="391.7769" y2="391.7769"/><line style="stroke:#181818;stroke-width:0.5;" x1="97.82" x2="194.0573" y1="399.7769" y2="399.7769"/><text fill="#000000" font-family="sans-serif" font-size="14" lengthAdjust="spacing" textLength="63" x="102.82" y="416.772">+getAll()</text></g><!--class Vaccine--><g class="entity" data-entity="Vaccine" data-source-line="19" data-uid="ent0006" id="entity_Vaccine"><rect fill="#F1F1F1" height="107.4844" rx="2.5" ry="2.5" style="stroke:#181818;stroke-width:0.5;" width="145.7178" x="73.08" y="501.07"/><text fill="#000000" font-family="sans-serif" font-size="14" lengthAdjust="spacing" textLength="54.9268" x="118.4755" y="519.0651">Vaccine</text><line style="stroke:#181818;stroke-width:0.5;" x1="74.08" x2="217.7978" y1="527.3669" y2="527.3669"/><text fill="#000000" font-family="sans-serif" font-size="14" lengthAdjust="spacing" textLength="133.7178" x="79.08" y="544.362">-commercial_name</text><text fill="#000000" font-family="sans-serif" font-size="14" lengthAdjust="spacing" textLength="46.0332" x="79.08" y="560.6589">-brand</text><line style="stroke:#181818;stroke-width:0.5;" x1="74.08" x2="217.7978" y1="567.9606" y2="567.9606"/><text fill="#000000" font-family="sans-serif" font-size="14" lengthAdjust="spacing" textLength="87.3428" x="79.08" y="584.9557">+getBrand()</text><text fill="#000000" font-family="sans-serif" font-size="14" lengthAdjust="spacing" textLength="79.9805" x="79.08" y="601.2526">+getType()</text></g><!--class Vaccine Type--><g class="entity" data-entity="Vaccine Type" data-source-line="26" data-uid="ent0007" id="entity_Vaccine Type"><rect fill="#F1F1F1" height="74.8906" rx="2.5" ry="2.5" style="stroke:#181818;stroke-width:0.5;" width="137.8701" x="77.01" y="685.56"/><text fill="#000000" font-family="sans-serif" font-size="14" lengthAdjust="spacing" textLength="93.7139" x="99.0881" y="703.5551">Vaccine Type</text><line style="stroke:#181818;stroke-width:0.5;" x1="78.01" x2="213.8801" y1="711.8569" y2="711.8569"/><text fill="#000000" font-family="sans-serif" font-size="14" lengthAdjust="spacing" textLength="38.8145" x="83.01" y="728.852">-code</text><text fill="#000000" font-family="sans-serif" font-size="14" lengthAdjust="spacing" textLength="125.8701" x="83.01" y="745.1489">-short_description</text><line style="stroke:#181818;stroke-width:0.5;" x1="78.01" x2="213.8801" y1="752.4506" y2="752.4506"/></g><!--link ListVaccinesUI to ListVaccinesController--><g class="link" data-entity-1="ListVaccinesUI" data-entity-2="ListVaccinesController" data-source-line="31" data-uid="lnk8" id="link_ListVaccinesUI_ListVaccinesController"><path codeLine="31" d="M145.94,49.73 C145.94,66.7 145.94,84.95 145.94,103.84" fill="none" id="ListVaccinesUI-to-ListVaccinesController" style="stroke:#181818;stroke-width:1;stroke-dasharray:7,7;"/><polygon fill="#181818" points="145.94,109.84,149.94,100.84,145.94,104.84,141.94,100.84,145.94,109.84" style="stroke:#181818;stroke-width:1;"/></g><!--link ListVaccinesController to Company--><g class="link" data-entity-1="ListVaccinesController" data-entity-2="Company" data-source-line="32" data-uid="lnk9" id="link_ListVaccinesController_Company"><path codeLine="32" d="M130.28,169.36 C120.29,187.72 110.2705,206.1412 100.3005,224.4412" fill="none" id="ListVaccinesController-to-Company" style="stroke:#181818;stroke-width:1;stroke-dasharray:7,7;"/><polygon fill="#181818" points="97.43,229.71,105.2483,223.7205,99.8221,225.3193,98.2232,219.8931,97.43,229.71" style="stroke:#181818;stroke-width:1;"/></g><!--link ListVaccinesController to VaccineStore--><g class="link" data-entity-1="ListVaccinesController" data-entity-2="VaccineStore" data-source-line="33" data-uid="lnk10" id="link_ListVaccinesController_VaccineStore"><path codeLine="33" d="M157.29,169.02 C163.57,186.31 170.74,209.01 173.94,229.89 C181.21,277.39 169.047,326.7279 158.347,359.4079" fill="none" id="ListVaccinesController-to-VaccineStore" style="stroke:#181818;stroke-width:1;stroke-dasharray:7,7;"/><polygon fill="#181818" points="156.48,365.11,163.0819,357.8014,158.0358,360.3582,155.479,355.3121,156.48,365.11" style="stroke:#181818;stroke-width:1;"/></g><!--link Company to VaccineStore--><g class="link" data-entity-1="Company" data-entity-2="VaccineStore" data-source-line="34" data-uid="lnk11" id="link_Company_VaccineStore"><path codeLine="34" d="M95.67,288.84 C106.47,311.38 118.8484,337.2286 129.6384,359.7586" fill="none" id="Company-to-VaccineStore" style="stroke:#181818;stroke-width:1;"/><polygon fill="#181818" points="132.23,365.17,131.9502,355.3251,130.0703,360.6605,124.735,358.7806,132.23,365.17" style="stroke:#181818;stroke-width:1;"/><polygon fill="#000000" points="125.0999,331.5558,123.8432,322.1287,118.542,324.6678,125.0999,331.5558" style="stroke:#000000;stroke-width:1;"/><text fill="#000000" font-family="sans-serif" font-size="13" lengthAdjust="spacing" textLength="22.9785" x="131.94" y="331.5469">has</text><text fill="#000000" font-family="sans-serif" font-size="13" lengthAdjust="spacing" textLength="8.271" x="89.7047" y="308.5834">1</text><text fill="#000000" font-family="sans-serif" font-size="13" lengthAdjust="spacing" textLength="8.271" x="120.6055" y="354.5973">1</text></g><!--link VaccineStore to Vaccine--><g class="link" data-entity-1="VaccineStore" data-entity-2="Vaccine" data-source-line="35" data-uid="lnk12" id="link_VaccineStore_Vaccine"><path codeLine="35" d="M145.94,424.4 C145.94,445.66 145.94,469.27 145.94,494.8" fill="none" id="VaccineStore-to-Vaccine" style="stroke:#181818;stroke-width:1;"/><polygon fill="#181818" points="145.94,500.8,149.94,491.8,145.94,495.8,141.94,491.8,145.94,500.8" style="stroke:#181818;stroke-width:1;"/><polygon fill="#000000" points="150.94,467.6364,153.8789,458.5913,148.0011,458.5913,150.94,467.6364" style="stroke:#000000;stroke-width:1;"/><text fill="#000000" font-family="sans-serif" font-size="13" lengthAdjust="spacing" textLength="39.9395" x="159.94" y="467.1369">stores</text><text fill="#000000" font-family="sans-serif" font-size="13" lengthAdjust="spacing" textLength="8.271" x="137.1432" y="444.1372">1</text><text fill="#000000" font-family="sans-serif" font-size="13" lengthAdjust="spacing" textLength="6.5" x="139.5878" y="489.9942">*</text></g><!--link Vaccine to Vaccine Type--><g class="link" data-entity-1="Vaccine" data-entity-2="Vaccine Type" data-source-line="36" data-uid="lnk13" id="link_Vaccine_Vaccine Type"><path codeLine="36" d="M145.94,608.86 C145.94,633.74 145.94,656.79 145.94,679.22" fill="none" id="Vaccine-to-Vaccine Type" style="stroke:#181818;stroke-width:1;"/><polygon fill="#181818" points="145.94,685.22,149.94,676.22,145.94,680.22,141.94,676.22,145.94,685.22" style="stroke:#181818;stroke-width:1;"/><polygon fill="#000000" points="150.94,652.1264,153.8789,643.0813,148.0011,643.0813,150.94,652.1264" style="stroke:#000000;stroke-width:1;"/><text fill="#000000" font-family="sans-serif" font-size="13" lengthAdjust="spacing" textLength="22.9785" x="159.94" y="651.6269">has</text><text fill="#000000" font-family="sans-serif" font-size="13" lengthAdjust="spacing" textLength="6.5" x="139.605" y="628.4361">*</text><text fill="#000000" font-family="sans-serif" font-size="13" lengthAdjust="spacing" textLength="8.271" x="137.2749" y="674.5149">1</text></g><!--SRC=[VP0zRy8m54Lt_ugdJBHL45qxHA9CIDqehCWuJyrJ_H4zcu5M_U_4RXmI2fqYltlkZNJy9zbMiZIWjFH-6GBJuHXmhPpTq1V2GZHK8oXYfL68HC4R-R2JIf55lrt3j_YvbQoS3UoqHku8W2Vum9n5RFPmgQsSQQKz_U4smJ6EmV7zGY-rlW6bl0JbZ45M9FNUIeFfTc1fwzn-ZO-ktp_VJ-tabqMUYq4nZDQ_Ixvn7FOrUiNK1d8s5g_ypEVL7J7YZg_Ow9tyXunjYEomU2wWBAlqdUXwWKPwgCJaED2F0zs1FcOZDiLvz4f8Fti6]--></g></svg>