<svg xmlns="http://www.w3.org/2000/svg" xmlns:xlink="http://www.w3.org/1999/xlink" contentStyleType="text/css" data-diagram-type="SEQUENCE" height="356px" preserveAspectRatio="none" style="width:467px;height:356px;background:#FFFFFF;" version="1.1" viewBox="0 0 467 356" width="467px" zoomAndPan="magnify"><defs/><g><g><title>Administrator</title><rect fill="#FFFFFF" height="166.7969" style="stroke:#181818;stroke-width:1;" width="10" x="50.8413" y="91.2969"/></g><g><title>.System</title><rect fill="#FFFFFF" height="29.1328" style="stroke:#181818;stroke-width:1;" width="10" x="420.9697" y="112.4297"/></g><g><title>.System</title><rect fill="#FFFFFF" height="29.1328" style="stroke:#181818;stroke-width:1;" width="10" x="420.9697" y="170.6953"/></g><g><title>.System</title><rect fill="#FFFFFF" height="29.1328" style="stroke:#181818;stroke-width:1;" width="10" x="420.9697" y="228.9609"/></g><g><title>Administrator</title><rect fill="#000000" fill-opacity="0.00000" height="194.7969" width="8" x="51.8413" y="81.2969"/><line style="stroke:#181818;stroke-width:0.5;stroke-dasharray:5,5;" x1="55" x2="55" y1="81.2969" y2="276.0938"/></g><g><title>.System</title><rect fill="#000000" fill-opacity="0.00000" height="194.7969" width="8" x="421.9697" y="81.2969"/><line style="stroke:#181818;stroke-width:0.5;stroke-dasharray:5,5;" x1="425.5083" x2="425.5083" y1="81.2969" y2="276.0938"/></g><g class="participant participant-head" data-participant="Admin"><text fill="#000000" font-family="sans-serif" font-size="14" lengthAdjust="spacing" textLength="95.6826" x="5" y="77.9951">Administrator</text><ellipse cx="55.8413" cy="13.5" fill="#E2E2F0" rx="8" ry="8" style="stroke:#181818;stroke-width:0.5;"/><path d="M55.8413,21.5 L55.8413,48.5 M42.8413,29.5 L68.8413,29.5 M55.8413,48.5 L42.8413,63.5 M55.8413,48.5 L68.8413,63.5" fill="none" style="stroke:#181818;stroke-width:0.5;"/></g><g class="participant participant-tail" data-participant="Admin"><text fill="#000000" font-family="sans-serif" font-size="14" lengthAdjust="spacing" textLength="95.6826" x="5" y="288.0889">Administrator</text><ellipse cx="55.8413" cy="299.8906" fill="#E2E2F0" rx="8" ry="8" style="stroke:#181818;stroke-width:0.5;"/><path d="M55.8413,307.8906 L55.8413,334.8906 M42.8413,315.8906 L68.8413,315.8906 M55.8413,334.8906 L42.8413,349.8906 M55.8413,334.8906 L68.8413,349.8906" fill="none" style="stroke:#181818;stroke-width:0.5;"/></g><g class="participant participant-head" data-participant="System"><rect fill="#E2E2F0" height="30.2969" rx="2.5" ry="2.5" style="stroke:#181818;stroke-width:0.5;" width="70.9229" x="390.5083" y="50"/><text fill="#000000" font-family="sans-serif" font-size="14" lengthAdjust="spacing" textLength="56.9229" x="397.5083" y="69.9951">:System</text></g><g class="participant participant-tail" data-participant="System"><rect fill="#E2E2F0" height="30.2969" rx="2.5" ry="2.5" style="stroke:#181818;stroke-width:0.5;" width="70.9229" x="390.5083" y="275.0938"/><text fill="#000000" font-family="sans-serif" font-size="14" lengthAdjust="spacing" textLength="56.9229" x="397.5083" y="295.0889">:System</text></g><g><title>Administrator</title><rect fill="#FFFFFF" height="166.7969" style="stroke:#181818;stroke-width:1;" width="10" x="50.8413" y="91.2969"/></g><g><title>.System</title><rect fill="#FFFFFF" height="29.1328" style="stroke:#181818;stroke-width:1;" width="10" x="420.9697" y="112.4297"/></g><g><title>.System</title><rect fill="#FFFFFF" height="29.1328" style="stroke:#181818;stroke-width:1;" width="10" x="420.9697" y="170.6953"/></g><g><title>.System</title><rect fill="#FFFFFF" height="29.1328" style="stroke:#181818;stroke-width:1;" width="10" x="420.9697" y="228.9609"/></g><g class="message" data-participant-1="Admin" data-participant-2="System"><polygon fill="#181818" points="408.9697,108.4297,418.9697,112.4297,408.9697,116.4297,412.9697,112.4297" style="stroke:#181818;stroke-width:1;"/><line style="stroke:#181818;stroke-width:1;" x1="60.8413" x2="414.9697" y1="112.4297" y2="112.4297"/><text fill="#000000" font-family="sans-serif" font-size="13" font-weight="bold" lengthAdjust="spacing" textLength="9.0454" x="67.8413" y="107.3638">1</text><text fill="#000000" font-family="sans-serif" font-size="13" lengthAdjust="spacing" textLength="226.6177" x="80.8867" y="107.3638">asks to specify a new vaccine type</text></g><g class="message" data-participant-1="System" data-participant-2="Admin"><polygon fill="#181818" points="71.8413,137.5625,61.8413,141.5625,71.8413,145.5625,67.8413,141.5625" style="stroke:#181818;stroke-width:1;"/><line style="stroke:#181818;stroke-width:1;stroke-dasharray:2,2;" x1="65.8413" x2="424.9697" y1="141.5625" y2="141.5625"/><text fill="#000000" font-family="sans-serif" font-size="13" font-weight="bold" lengthAdjust="spacing" textLength="9.0454" x="77.8413" y="136.4966">2</text><text fill="#000000" font-family="sans-serif" font-size="13" lengthAdjust="spacing" textLength="323.083" x="90.8867" y="136.4966">asks for the data (Code, Description, Technology)</text></g><g class="message" data-participant-1="Admin" data-participant-2="System"><polygon fill="#181818" points="408.9697,166.6953,418.9697,170.6953,408.9697,174.6953,412.9697,170.6953" style="stroke:#181818;stroke-width:1;"/><line style="stroke:#181818;stroke-width:1;" x1="60.8413" x2="414.9697" y1="170.6953" y2="170.6953"/><text fill="#000000" font-family="sans-serif" font-size="13" font-weight="bold" lengthAdjust="spacing" textLength="9.0454" x="67.8413" y="165.6294">3</text><text fill="#000000" font-family="sans-serif" font-size="13" lengthAdjust="spacing" textLength="164.7788" x="80.8867" y="165.6294">types the requested data</text></g><g class="message" data-participant-1="System" data-participant-2="Admin"><polygon fill="#181818" points="71.8413,195.8281,61.8413,199.8281,71.8413,203.8281,67.8413,199.8281" style="stroke:#181818;stroke-width:1;"/><line style="stroke:#181818;stroke-width:1;stroke-dasharray:2,2;" x1="65.8413" x2="424.9697" y1="199.8281" y2="199.8281"/><text fill="#000000" font-family="sans-serif" font-size="13" font-weight="bold" lengthAdjust="spacing" textLength="9.0454" x="77.8413" y="194.7622">4</text><text fill="#000000" font-family="sans-serif" font-size="13" lengthAdjust="spacing" textLength="274.9868" x="90.8867" y="194.7622">shows the data and requests confirmation</text></g><g class="message" data-participant-1="Admin" data-participant-2="System"><polygon fill="#181818" points="408.9697,224.9609,418.9697,228.9609,408.9697,232.9609,412.9697,228.9609" style="stroke:#181818;stroke-width:1;"/><line style="stroke:#181818;stroke-width:1;" x1="60.8413" x2="414.9697" y1="228.9609" y2="228.9609"/><text fill="#000000" font-family="sans-serif" font-size="13" font-weight="bold" lengthAdjust="spacing" textLength="9.0454" x="67.8413" y="223.895">5</text><text fill="#000000" font-family="sans-serif" font-size="13" lengthAdjust="spacing" textLength="115.1909" x="80.8867" y="223.895">confirms the data</text></g><g class="message" data-participant-1="System" data-participant-2="Admin"><polygon fill="#181818" points="66.8413,254.0938,56.8413,258.0938,66.8413,262.0938,62.8413,258.0938" style="stroke:#181818;stroke-width:1;"/><line style="stroke:#181818;stroke-width:1;stroke-dasharray:2,2;" x1="60.8413" x2="424.9697" y1="258.0938" y2="258.0938"/><text fill="#000000" font-family="sans-serif" font-size="13" font-weight="bold" lengthAdjust="spacing" textLength="9.0454" x="72.8413" y="253.0278">6</text><text fill="#000000" font-family="sans-serif" font-size="13" lengthAdjust="spacing" textLength="298.2573" x="85.8867" y="253.0278">records the vaccine type and informs success</text></g><!--SRC=[ZP31JiCm38RlUGgh9v2s5zW1QO8tW1SmZhjQq2J4xgQ-FMaQr0djq5CIn__dJyR9OfZ6JyuEoMA6xkn72QAMiJmxG8LQSGcp2Kd2OD2TtcSr7kltUdLBNgvetFfTFU3uqXhWL9g_52o29YRfPq08V8Ch4abWi3dn1cdKbZqMpCfhbBwesi3WqH2UNgFd0xonKfPa4iC1FfY64B_ZPNvsdlzZ7yWjuxKoC_zCNAg-qlSewH1lklbWy7yG1OgXbppYehNFf2Ksu1w5p1IpNpFt6wqo4ig-2b0d8bPzf75NgiXV]--></g></svg>
