<svg xmlns="http://www.w3.org/2000/svg" xmlns:xlink="http://www.w3.org/1999/xlink" contentStyleType="text/css" data-diagram-type="SEQUENCE" height="356px" preserveAspectRatio="none" style="width:573px;height:356px;background:#FFFFFF;" version="1.1" viewBox="0 0 573 356" width="573px" zoomAndPan="magnify"><defs/><g><g><title>Administrator</title><rect fill="#FFFFFF" height="166.7969" style="stroke:#181818;stroke-width:1;" width="10" x="50.8413" y="91.2969"/></g><g><title>.System</title><rect fill="#FFFFFF" height="29.1328" style="stroke:#181818;stroke-width:1;" width="10" x="527.4199" y="112.4297"/></g><g><title>.System</title><rect fill="#FFFFFF" height="29.1328" style="stroke:#181818;stroke-width:1;" width="10" x="527.4199" y="170.6953"/></g><g><title>.System</title><rect fill="#FFFFFF" height="29.1328" style="stroke:#181818;stroke-width:1;" width="10" x="527.4199" y="228.9609"/></g><g><title>Administrator</title><rect fill="#000000" fill-opacity="0.00000" height="194.7969" width="8" x="51.8413" y="81.2969"/><line style="stroke:#181818;stroke-width:0.5;stroke-dasharray:5,5;" x1="55" x2="55" y1="81.2969" y2="276.0938"/></g><g><title>.System</title><rect fill="#000000" fill-opacity="0.00000" height="194.7969" width="8" x="528.4199" y="81.2969"/><line style="stroke:#181818;stroke-width:0.5;stroke-dasharray:5,5;" x1="531.9585" x2="531.9585" y1="81.2969" y2="276.0938"/></g><g class="participant participant-head" data-participant="Admin"><text fill="#000000" font-family="sans-serif" font-size="14" lengthAdjust="spacing" textLength="95.6826" x="5" y="77.9951">Administrator</text><ellipse cx="55.8413" cy="13.5" fill="#E2E2F0" rx="8" ry="8" style="stroke:#181818;stroke-width:0.5;"/><path d="M55.8413,21.5 L55.8413,48.5 M42.8413,29.5 L68.8413,29.5 M55.8413,48.5 L42.8413,63.5 M55.8413,48.5 L68.8413,63.5" fill="none" style="stroke:#181818;stroke-width:0.5;"/></g><g class="participant participant-tail" data-participant="Admin"><text fill="#000000" font-family="sans-serif" font-size="14" lengthAdjust="spacing" textLength="95.6826" x="5" y="288.0889">Administrator</text><ellipse cx="55.8413" cy="299.8906" fill="#E2E2F0" rx="8" ry="8" style="stroke:#181818;stroke-width:0.5;"/><path d="M55.8413,307.8906 L55.8413,334.8906 M42.8413,315.8906 L68.8413,315.8906 M55.8413,334.8906 L42.8413,349.8906 M55.8413,334.8906 L68.8413,349.8906" fill="none" style="stroke:#181818;stroke-width:0.5;"/></g><g class="participant participant-head" data-participant="System"><rect fill="#E2E2F0" height="30.2969" rx="2.5" ry="2.5" style="stroke:#181818;stroke-width:0.5;" width="70.9229" x="496.9585" y="50"/><text fill="#000000" font-family="sans-serif" font-size="14" lengthAdjust="spacing" textLength="56.9229" x="503.9585" y="69.9951">:System</text></g><g class="participant participant-tail" data-participant="System"><rect fill="#E2E2F0" height="30.2969" rx="2.5" ry="2.5" style="stroke:#181818;stroke-width:0.5;" width="70.9229" x="496.9585" y="275.0938"/><text fill="#000000" font-family="sans-serif" font-size="14" lengthAdjust="spacing" textLength="56.9229" x="503.9585" y="295.0889">:System</text></g><g><title>Administrator</title><rect fill="#FFFFFF" height="166.7969" style="stroke:#181818;stroke-width:1;" width="10" x="50.8413" y="91.2969"/></g><g><title>.System</title><rect fill="#FFFFFF" height="29.1328" style="stroke:#181818;stroke-width:1;" width="10" x="527.4199" y="112.4297"/></g><g><title>.System</title><rect fill="#FFFFFF" height="29.1328" style="stroke:#181818;stroke-width:1;" width="10" x="527.4199" y="170.6953"/></g><g><title>.System</title><rect fill="#FFFFFF" height="29.1328" style="stroke:#181818;stroke-width:1;" width="10" x="527.4199" y="228.9609"/></g><g class="message" data-participant-1="Admin" data-participant-2="System"><polygon fill="#181818" points="515.4199,108.4297,525.4199,112.4297,515.4199,116.4297,519.4199,112.4297" style="stroke:#181818;stroke-width:1;"/><line style="stroke:#181818;stroke-width:1;" x1="60.8413" x2="521.4199" y1="112.4297" y2="112.4297"/><text fill="#000000" font-family="sans-serif" font-size="13" font-weight="bold" lengthAdjust="spacing" textLength="9.0454" x="67.8413" y="107.3638">1</text><text fill="#000000" font-family="sans-serif" font-size="13" lengthAdjust="spacing" textLength="248.8154" x="80.8867" y="107.3638">asks to load SNS users from a CSV file</text></g><g class="message" data-participant-1="System" data-participant-2="Admin"><polygon fill="#181818" points="71.8413,137.5625,61.8413,141.5625,71.8413,145.5625,67.8413,141.5625" style="stroke:#181818;stroke-width:1;"/><line style="stroke:#181818;stroke-width:1;stroke-dasharray:2,2;" x1="65.8413" x2="531.4199" y1="141.5625" y2="141.5625"/><text fill="#000000" font-family="sans-serif" font-size="13" font-weight="bold" lengthAdjust="spacing" textLength="9.0454" x="77.8413" y="136.4966">2</text><text fill="#000000" font-family="sans-serif" font-size="13" lengthAdjust="spacing" textLength="175.3794" x="90.8867" y="136.4966">asks for the file path/name</text></g><g class="message" data-participant-1="Admin" data-participant-2="System"><polygon fill="#181818" points="515.4199,166.6953,525.4199,170.6953,515.4199,174.6953,519.4199,170.6953" style="stroke:#181818;stroke-width:1;"/><line style="stroke:#181818;stroke-width:1;" x1="60.8413" x2="521.4199" y1="170.6953" y2="170.6953"/><text fill="#000000" font-family="sans-serif" font-size="13" font-weight="bold" lengthAdjust="spacing" textLength="9.0454" x="67.8413" y="165.6294">3</text><text fill="#000000" font-family="sans-serif" font-size="13" lengthAdjust="spacing" textLength="118.8979" x="80.8867" y="165.6294">types the file path</text></g><g class="message" data-participant-1="System" data-participant-2="Admin"><polygon fill="#181818" points="71.8413,195.8281,61.8413,199.8281,71.8413,203.8281,67.8413,199.8281" style="stroke:#181818;stroke-width:1;"/><line style="stroke:#181818;stroke-width:1;stroke-dasharray:2,2;" x1="65.8413" x2="531.4199" y1="199.8281" y2="199.8281"/><text fill="#000000" font-family="sans-serif" font-size="13" font-weight="bold" lengthAdjust="spacing" textLength="9.0454" x="77.8413" y="194.7622">4</text><text fill="#000000" font-family="sans-serif" font-size="13" lengthAdjust="spacing" textLength="429.5332" x="90.8867" y="194.7622">validates the file and displays summary (number of users to load)</text></g><g class="message" data-participant-1="Admin" data-participant-2="System"><polygon fill="#181818" points="515.4199,224.9609,525.4199,228.9609,515.4199,232.9609,519.4199,228.9609" style="stroke:#181818;stroke-width:1;"/><line style="stroke:#181818;stroke-width:1;" x1="60.8413" x2="521.4199" y1="228.9609" y2="228.9609"/><text fill="#000000" font-family="sans-serif" font-size="13" font-weight="bold" lengthAdjust="spacing" textLength="9.0454" x="67.8413" y="223.895">5</text><text fill="#000000" font-family="sans-serif" font-size="13" lengthAdjust="spacing" textLength="56.3101" x="80.8867" y="223.895">confirms</text></g><g class="message" data-participant-1="System" data-participant-2="Admin"><polygon fill="#181818" points="66.8413,254.0938,56.8413,258.0938,66.8413,262.0938,62.8413,258.0938" style="stroke:#181818;stroke-width:1;"/><line style="stroke:#181818;stroke-width:1;stroke-dasharray:2,2;" x1="60.8413" x2="531.4199" y1="258.0938" y2="258.0938"/><text fill="#000000" font-family="sans-serif" font-size="13" font-weight="bold" lengthAdjust="spacing" textLength="9.0454" x="72.8413" y="253.0278">6</text><text fill="#000000" font-family="sans-serif" font-size="13" lengthAdjust="spacing" textLength="302.7007" x="85.8867" y="253.0278">loads the users and informs operation success</text></g><!--SRC=[ZP4_RmCX3CLtFeLrKpj4tJDKghftEQcx2qQnUlmHzaMwRryEa99K6Mu2p7i_FmEkck8QVgWOj9eAJ1ykS6JHWlKu0GgqYibOb2rdZ0hJUTv4ARJhlZMxdw-eDFIcBN1w7m8uL_6lW2PO4ZgOlsPOXOg0Boa0mkVy3PuNke46UVXF5TMPW-HhNBrGCq56lRn536GS_GSyYQ9R9dbq7-bxnOLTbTnPCJfmB7d1JK3M4B1iyDBV598VCuwfNu-biobwBa6EHDgnFKxljEVXMDyc2AHCzHivnHhCMX9vrlwkr9X_]--></g></svg>
